<svg width="100" height="100" viewBox="0 0 100 100" fill="none" xmlns="http://www.w3.org/2000/svg">
<circle cx="50" cy="50" r="50" fill="white"/>
<path d="M37.55 38.6C37.78 32.16 41.575 29.4 48.475 29.4C54.8 29.4 58.25 32.16 58.25 36.875C58.25 43.545 48.82 44.35 38.815 46.88C28.925 49.41 19.725 54.47 19.725 65.625C19.725 76.665 27.775 81.725 38.7 81.725C53.995 81.725 57.675 68.5 57.675 68.5H58.25V80H74.35V39.175C74.35 23.65 62.85 18.475 48.475 18.475C34.675 18.475 22.37 23.305 21.45 38.6H37.55ZM58.25 49.87C58.25 58.725 55.375 71.375 44.45 71.375C39.275 71.375 36.055 68.5 36.055 63.9C36.055 58.61 40.425 55.965 45.6 54.7C50.2 53.55 55.605 52.285 58.25 49.87Z" fill="#944BF1"/>
</svg>
